# xmcd
#
# Track frame offsets:
#	150
#	16667
#	35200
#	42222
#	57453
#	73331
#	88108
#	103277
#	119031
#	136621
#	154094
#	170718
#	187309
#	202613
#	221259
#	235434
#	247211
#	262227
#	274786
#	290219
#	305619
#
# Disc length: 4385 seconds
# Revision: 0
# Processed by: cddbd v1.5.2PL0 Copyright (c) Steve Scherf et al.
# Submitted via: dBpowerAMP V12.0
#
DISCID=54111f15
DTITLE=Linda Ronstadt - Box Set CD 1
DYEAR=1900
DGENRE=
TTITLE0=Ruler Of My Heart
TTITLE1=Cry eTil My Tears Run Dry
TTITLE2=We Will Rock You
TTITLE3=Winter Light
TTITLE4=Anyone Who Had A Heart
TTITLE5=I Just Don't Know Wh
TTITLE6=Don't Talk (Put Your
TTITLE7=Do What You Gotta Do
TTITLE8=Heartbeats Accelerating
TTITLE9=Goodbye My Friend
TTITLE10=Adios
TTITLE11=Cry Like A Rainstorm
TTITLE12=Trouble Again
TTITLE13=Easy For You To Say
TTITLE14=The Moon Is A Harsh
TTITLE15=Get Closer
TTITLE16=Hurts So Bad
TTITLE17=I Can't Let Go
TTITLE18=Ooh Baby Baby
TTITLE19=Just One Look
TTITLE20=When We Ran
EXTD=
EXTT0=
EXTT1=
EXTT2=
EXTT3=
EXTT4=
EXTT5=
EXTT6=
EXTT7=
EXTT8=
EXTT9=
EXTT10=
EXTT11=
EXTT12=
EXTT13=
EXTT14=
EXTT15=
EXTT16=
EXTT17=
EXTT18=
EXTT19=
EXTT20=
PLAYORDER=
